<mxfile host="65bd71144e">
    <diagram id="WPz7O1HGjXkBEIbbj_7g" name="Page-1">
        <mxGraphModel dx="246" dy="123" grid="1" gridSize="10" guides="1" tooltips="1" connect="1" arrows="1" fold="1" page="1" pageScale="1" pageWidth="850" pageHeight="1100" math="0" shadow="0">
            <root>
                <mxCell id="0"/>
                <mxCell id="1" parent="0"/>
                <mxCell id="49" value="" style="endArrow=none;dashed=1;html=1;rounded=0;strokeColor=#0000F7;strokeWidth=3;fontFamily=Helvetica;fontSize=12;fontColor=default;" edge="1" parent="1">
                    <mxGeometry width="50" height="50" relative="1" as="geometry">
                        <mxPoint x="128" y="165" as="sourcePoint"/>
                        <mxPoint x="128" y="45" as="targetPoint"/>
                    </mxGeometry>
                </mxCell>
                <mxCell id="50" value="(root)" style="text;html=1;strokeColor=none;fillColor=none;align=center;verticalAlign=middle;whiteSpace=wrap;rounded=0;strokeWidth=3;fontFamily=Helvetica;fontSize=12;fontColor=#0000F7;" vertex="1" parent="1">
                    <mxGeometry x="108" y="32" width="42" height="15" as="geometry"/>
                </mxCell>
                <mxCell id="52" value="" style="endArrow=none;html=1;rounded=0;strokeColor=#0000F7;strokeWidth=3;fontFamily=Helvetica;fontSize=12;fontColor=#0000F7;" edge="1" parent="1">
                    <mxGeometry width="50" height="50" relative="1" as="geometry">
                        <mxPoint x="130" y="71" as="sourcePoint"/>
                        <mxPoint x="150" y="71" as="targetPoint"/>
                    </mxGeometry>
                </mxCell>
                <mxCell id="53" value="+" style="text;html=1;strokeColor=none;fillColor=none;align=center;verticalAlign=middle;whiteSpace=wrap;rounded=0;strokeWidth=3;fontFamily=Helvetica;fontSize=25;fontColor=#0000F7;fontStyle=1" vertex="1" parent="1">
                    <mxGeometry x="147" y="59" width="25" height="21" as="geometry"/>
                </mxCell>
                <mxCell id="54" value="" style="endArrow=none;html=1;rounded=0;strokeColor=#0000F7;strokeWidth=3;fontFamily=Helvetica;fontSize=12;fontColor=#0000F7;" edge="1" parent="1">
                    <mxGeometry width="50" height="50" relative="1" as="geometry">
                        <mxPoint x="159.65" y="80" as="sourcePoint"/>
                        <mxPoint x="159.35" y="91" as="targetPoint"/>
                    </mxGeometry>
                </mxCell>
            </root>
        </mxGraphModel>
    </diagram>
</mxfile>